<svg xmlns="http://www.w3.org/2000/svg" width="512" height="512" viewBox="0 0 512 512"><defs><linearGradient id="b" x1="72" y1="28" x2="440" y2="484" gradientUnits="userSpaceOnUse"><stop stop-color="#314959"/><stop offset=".58" stop-color="#14212B"/><stop offset="1" stop-color="#091016"/></linearGradient><linearGradient id="g" x1="136" y1="134" x2="377" y2="383" gradientUnits="userSpaceOnUse"><stop stop-color="#F1D99A"/><stop offset="1" stop-color="#B78630"/></linearGradient></defs><rect width="512" height="512" rx="112" fill="url(#b)"/><circle cx="256" cy="256" r="170" fill="none" stroke="#D7BB76" stroke-opacity=".32" stroke-width="3"/><path d="M132 340c72-74 176-123 253-105-42 6-85 29-111 66 38-18 79-22 113-11-61 17-109 51-140 99-24-22-63-39-115-49Z" fill="url(#g)"/><path d="M204 165c24-39 71-62 114-48l-18 38c35 7 58 30 70 60-43-6-88 4-128 28-11-34-25-55-57-71l19-7Z" fill="#F2DC9F"/><circle cx="303" cy="151" r="8" fill="#101923"/><text x="256" y="332" text-anchor="middle" fill="#101923" font-family="Georgia,serif" font-size="72" font-weight="700">KP</text></svg>
